<svg width="760" height="300" viewBox="0 0 760 300" fill="none" xmlns="http://www.w3.org/2000/svg">
<circle cx="126.5" cy="172.5" r="9" fill="white"/>
<circle cx="126.5" cy="195.75" r="9" fill="white"/>
<circle cx="126.5" cy="219" r="9" fill="white"/>
<circle cx="126.5" cy="242.25" r="9" fill="white"/>
<circle cx="126.5" cy="265.5" r="9" fill="white"/>
<circle cx="9" cy="9" r="9" transform="matrix(-1 0 0 1 89.5 163.5)" fill="white"/>
<circle cx="8" cy="8" r="8" transform="matrix(-1 0 0 1 88.5 187.75)" fill="white"/>
<circle cx="6" cy="6" r="6" transform="matrix(-1 0 0 1 86.5 213)" fill="white"/>
<circle cx="4.5" cy="4.5" r="4.5" transform="matrix(-1 0 0 1 85 237.75)" fill="white"/>
<circle cx="2.5" cy="2.5" r="2.5" transform="matrix(-1 0 0 1 83 263)" fill="white"/>
<circle cx="149.5" cy="149.5" r="9" fill="white"/>
<circle cx="149.5" cy="172.75" r="9" fill="white"/>
<circle cx="149.5" cy="196" r="9" fill="white"/>
<circle cx="149.5" cy="219.25" r="9" fill="white"/>
<circle cx="149.5" cy="242.5" r="9" fill="white"/>
<circle cx="9" cy="9" r="9" transform="matrix(-1 0 0 1 66.5 140.5)" fill="white"/>
<circle cx="8" cy="8" r="8" transform="matrix(-1 0 0 1 65.5 164.75)" fill="white"/>
<circle cx="6" cy="6" r="6" transform="matrix(-1 0 0 1 63.5 190)" fill="white"/>
<circle cx="4.5" cy="4.5" r="4.5" transform="matrix(-1 0 0 1 62 214.75)" fill="white"/>
<circle cx="2.5" cy="2.5" r="2.5" transform="matrix(-1 0 0 1 60 240)" fill="white"/>
<circle cx="172.5" cy="126.5" r="9" fill="white"/>
<circle cx="172.5" cy="149.75" r="9" fill="white"/>
<circle cx="172.5" cy="173" r="9" fill="white"/>
<circle cx="172.5" cy="196.25" r="9" fill="white"/>
<circle cx="172.5" cy="219.5" r="9" fill="white"/>
<circle cx="9" cy="9" r="9" transform="matrix(-1 0 0 1 43.5 117.5)" fill="white"/>
<circle cx="8" cy="8" r="8" transform="matrix(-1 0 0 1 42.5 141.75)" fill="white"/>
<circle cx="6" cy="6" r="6" transform="matrix(-1 0 0 1 40.5 167)" fill="white"/>
<circle cx="4.5" cy="4.5" r="4.5" transform="matrix(-1 0 0 1 39 191.75)" fill="white"/>
<circle cx="2.5" cy="2.5" r="2.5" transform="matrix(-1 0 0 1 37 217)" fill="white"/>
<circle cx="195.5" cy="102.5" r="9" fill="white"/>
<circle cx="195.5" cy="125.75" r="9" fill="white"/>
<circle cx="195.5" cy="149" r="9" fill="white"/>
<circle cx="195.5" cy="172.25" r="9" fill="white"/>
<circle cx="195.5" cy="195.5" r="9" fill="white"/>
<circle cx="9" cy="9" r="9" transform="matrix(-1 0 0 1 20.5 93.5)" fill="white"/>
<circle cx="8" cy="8" r="8" transform="matrix(-1 0 0 1 19.5 117.75)" fill="white"/>
<circle cx="6" cy="6" r="6" transform="matrix(-1 0 0 1 17.5 143)" fill="white"/>
<circle cx="4.5" cy="4.5" r="4.5" transform="matrix(-1 0 0 1 16 167.75)" fill="white"/>
<circle cx="2.5" cy="2.5" r="2.5" transform="matrix(-1 0 0 1 14 193)" fill="white"/>
<circle cx="103.5" cy="195.5" r="9" fill="white"/>
<circle cx="103.5" cy="218.75" r="9" fill="white"/>
<circle cx="103.5" cy="242" r="9" fill="white"/>
<circle cx="103.5" cy="265.25" r="9" fill="white"/>
<circle cx="103.5" cy="288.5" r="9" fill="white"/>
<circle cx="103.5" cy="11.5" r="2.5" fill="white"/>
<circle cx="103.5" cy="34.5" r="2.5" fill="white"/>
<circle cx="103.5" cy="57.5" r="2.5" fill="white"/>
<circle cx="103.5" cy="80.5" r="2.5" fill="white"/>
<circle cx="103.5" cy="103.5" r="2.5" fill="white"/>
<circle cx="103.5" cy="126.5" r="2.5" fill="white"/>
<circle cx="103.5" cy="149.5" r="2.5" fill="white"/>
<circle cx="103.5" cy="172.5" r="2.5" fill="white"/>
<circle cx="126.5" cy="34.5" r="2.5" fill="white"/>
<circle cx="126.5" cy="57.5" r="2.5" fill="white"/>
<circle cx="126.5" cy="80.5" r="2.5" fill="white"/>
<circle cx="126.5" cy="103.5" r="2.5" fill="white"/>
<circle cx="126.5" cy="126.5" r="2.5" fill="white"/>
<circle cx="126.5" cy="149.5" r="2.5" fill="white"/>
<circle cx="2.5" cy="2.5" r="2.5" transform="matrix(-1 0 0 1 83 32)" fill="white"/>
<circle cx="2.5" cy="2.5" r="2.5" transform="matrix(-1 0 0 1 83 55)" fill="white"/>
<circle cx="2.5" cy="2.5" r="2.5" transform="matrix(-1 0 0 1 83 78)" fill="white"/>
<circle cx="2.5" cy="2.5" r="2.5" transform="matrix(-1 0 0 1 83 101)" fill="white"/>
<circle cx="2.5" cy="2.5" r="2.5" transform="matrix(-1 0 0 1 83 124)" fill="white"/>
<circle cx="2.5" cy="2.5" r="2.5" transform="matrix(-1 0 0 1 83 147)" fill="white"/>
<circle cx="149.5" cy="58.5" r="2.5" fill="white"/>
<circle cx="149.5" cy="81.5" r="2.5" fill="white"/>
<circle cx="149.5" cy="104.5" r="2.5" fill="white"/>
<circle cx="149.5" cy="127.5" r="2.5" fill="white"/>
<circle cx="149.5" cy="150.5" r="2.5" fill="white"/>
<circle cx="149.5" cy="173.5" r="2.5" fill="white"/>
<circle cx="2.5" cy="2.5" r="2.5" transform="matrix(-1 0 0 1 60 56)" fill="white"/>
<circle cx="2.5" cy="2.5" r="2.5" transform="matrix(-1 0 0 1 60 79)" fill="white"/>
<circle cx="2.5" cy="2.5" r="2.5" transform="matrix(-1 0 0 1 60 102)" fill="white"/>
<circle cx="2.5" cy="2.5" r="2.5" transform="matrix(-1 0 0 1 60 125)" fill="white"/>
<circle cx="172.5" cy="81.5" r="2.5" fill="white"/>
<circle cx="172.5" cy="104.5" r="2.5" fill="white"/>
<circle cx="2.5" cy="2.5" r="2.5" transform="matrix(-1 0 0 1 37 79)" fill="white"/>
<circle cx="2.5" cy="2.5" r="2.5" transform="matrix(-1 0 0 1 37 102)" fill="white"/>
<path d="M724.256 92.3167H747.881V214.817H724.256V92.3167Z" fill="white"/>
<path d="M617.258 92.3167C630.324 92.3167 641.641 94.8833 651.208 100.017C660.891 105.033 668.416 112.15 673.783 121.367C679.149 130.583 681.833 141.433 681.833 153.917C681.833 166.283 679.149 177.017 673.783 186.117C668.416 195.217 660.891 202.275 651.208 207.292C641.641 212.308 630.324 214.817 617.258 214.817H571.583V92.3167H617.258ZM616.558 195.042C629.741 195.042 639.891 191.425 647.008 184.192C654.124 176.842 657.683 166.75 657.683 153.917C657.683 140.967 654.124 130.758 647.008 123.292C639.891 115.825 629.741 112.092 616.558 112.092H595.208V195.042H616.558Z" fill="white"/>
<path d="M476.713 92.3167V195.042H531.313V214.817H453.088V92.3167H476.713Z" fill="white"/>
<path d="M296.525 214.817H272.9V92.3167H299.85L338.875 184.017L377.9 92.3167H404.85V214.817H381.225V135.717L348.15 214.817H329.6L296.525 135.717V214.817Z" fill="white"/>
</svg>